<?xml version="1.0" encoding="UTF-8"?>
<svg width="56px" height="58px" viewBox="0 0 56 58" version="1.1" xmlns="http://www.w3.org/2000/svg" xmlns:xlink="http://www.w3.org/1999/xlink">
    <!-- Generator: Sketch 55.2 (78181) - https://sketchapp.com -->
    <title>分组</title>
    <desc>Created with Sketch.</desc>
    <defs>
        <path d="M4.60559909,11.8155215 L11.59808,16.0350573 C11.9010242,16.2178657 12.2801478,16.2184702 12.5836734,16.0366287 L19.642571,11.807659 C20.0956564,11.5362166 20.6830023,11.6834673 20.9544448,12.1365527 C21.0434136,12.2850574 21.090404,12.4549268 21.090404,12.6280427 L21.090404,20.6973057 C21.090404,21.2254793 20.6622347,21.6536487 20.134061,21.6536487 L4.11149571,21.6536487 C3.58332206,21.6536487 3.15515271,21.2254793 3.15515271,20.6973057 L3.15515271,12.6343339 C3.15515271,12.1061602 3.58332206,11.6779909 4.11149571,11.6779909 C4.28564691,11.6779909 4.45649237,11.7255446 4.60559909,11.8155215 Z M6.0559257,4.91229573 L18.1248828,4.91229573 C18.5826333,4.91229573 18.9537134,5.28337583 18.9537134,5.74112633 L18.9537134,9.4089608 C18.9537134,9.69180758 18.8094742,9.95512659 18.5711214,10.10741 L13.1239955,13.587574 C12.4941258,13.9899973 11.6875501,13.9886448 11.0590334,13.5841116 L5.60734735,10.0752335 C5.3703365,9.9226858 5.2270951,9.6601445 5.2270951,9.37828471 L5.2270951,5.74112633 C5.2270951,5.28337583 5.5981752,4.91229573 6.0559257,4.91229573 Z" id="path-1"></path>
    </defs>
    <g id="页面1" stroke="none" stroke-width="1" fill="none" fill-rule="evenodd">
        <g id="1_未登录" transform="translate(-380.000000, -473.000000)">
            <g id="编组-7">
                <g id="编组备份" transform="translate(0.000000, 432.000000)">
                    <g id="Group-6" transform="translate(360.000000, 14.000000)">
                        <g id="分组" transform="translate(24.000000, 27.000000)">
                            <path d="M1.18627526,22.0040506 C2.56781808,22.3667574 3.99832171,22.5522534 5.45454545,22.5522534 C14.787095,22.5522534 22.3583366,14.9160091 22.3583366,5.48924062 L22.3583366,3.84757719 L24,3.84757719 C38.1646561,3.84757719 49.6416634,15.4231201 49.6416634,29.6952921 C49.6416634,43.9674642 38.1646561,55.5430071 24,55.5430071 C9.83534387,55.5430071 -1.64166343,43.9674642 -1.64166343,29.6952921 C-1.64166343,27.4762854 -1.36388369,25.292742 -0.820378853,23.1824547 L-0.409012748,21.5852276 L1.18627526,22.0040506 Z" id="合并形状-copy-2" stroke="#FFFFFF" stroke-width="3.28332686" fill="#FFFFFF"></path>
                            <g id="发邀请" transform="translate(11.000000, 19.000000)">
                                <g transform="translate(12.600000, 12.600000) scale(-1, 1) translate(-12.600000, -12.600000) " id="编组">
                                    <g>
                                        <rect id="矩形" x="0" y="0" width="25.1999993" height="25.1999993"></rect>
                                        <mask id="mask-2" fill="white">
                                            <use xlink:href="#path-1"></use>
                                        </mask>
                                        <path stroke="#1F3F59" stroke-width="1.79999995" d="M5.07059232,11.0449494 L12.0630732,15.2644853 C12.0809212,15.2752555 12.1032573,15.2752911 12.1211395,15.2645779 L19.1800371,11.0356082 C20.0595144,10.5087154 21.1996027,10.7945415 21.7264955,11.6740188 C21.8991916,11.9622791 21.990404,12.2920101 21.990404,12.6280427 L21.990404,20.6973057 C21.990404,21.7225356 21.159291,22.5536487 20.134061,22.5536487 L4.11149571,22.5536487 C3.08626579,22.5536487 2.25515273,21.7225356 2.25515273,20.6973057 L2.25515273,12.6343339 C2.25515273,11.609104 3.08626579,10.7779909 4.11149571,10.7779909 C4.44953798,10.7779909 4.78116352,10.8702968 5.07059232,11.0449494 Z M6.0559257,4.01229576 L18.1248828,4.01229576 C19.0796896,4.01229576 19.8537134,4.78631957 19.8537134,5.74112633 L19.8537134,9.4089608 C19.8537134,9.99894163 19.5528496,10.5481901 19.0556773,10.8658331 L13.6085514,14.3459971 C12.6823011,14.9377776 11.4961973,14.9357888 10.5719368,14.3409054 L5.12025082,10.8320273 C4.62587766,10.5138331 4.32709513,9.96620681 4.32709513,9.37828471 L4.32709513,5.74112633 C4.32709513,4.78631957 5.10111894,4.01229576 6.0559257,4.01229576 Z"></path>
                                        <g id="矩形" mask="url(#mask-2)">
                                            <g transform="translate(-4.500000, -0.243418)"></g>
                                        </g>
                                        <g id="矩形" mask="url(#mask-2)">
                                            <g transform="translate(3.394281, 6.210000)"></g>
                                        </g>
                                        <path d="M12.8913776,8.11739428 L13.9917653,8.11739428 C14.3720503,8.11739428 14.6803323,8.42567621 14.6803323,8.80596124 L14.6803323,8.84118642 C14.6803323,9.22147145 14.3720503,9.52975337 13.9917653,9.52975337 L12.8913776,9.52975337 L12.8913776,10.6360594 C12.8913776,11.0163445 12.5830957,11.3246264 12.2028106,11.3246264 L12.1722425,11.3246264 C11.7919575,11.3246264 11.4836756,11.0163445 11.4836756,10.6360594 L11.4836756,9.52975337 L10.3832878,9.52975337 C10.0030028,9.52975337 9.69472088,9.22147145 9.69472088,8.84118642 L9.69472088,8.80596124 C9.69472088,8.42567621 10.0030028,8.11739428 10.3832878,8.11739428 L11.4836756,8.11739428 L11.4836756,7.01108822 C11.4836756,6.63080319 11.7919575,6.32252126 12.1722425,6.32252126 L12.2028106,6.32252126 C12.5830957,6.32252126 12.8913776,6.63080319 12.8913776,7.01108822 L12.8913776,8.11739428 Z" id="形状结合" fill="#1F3F59" fill-rule="nonzero" mask="url(#mask-2)"></path>
                                    </g>
                                </g>
                            </g>
                            <polygon id="1" fill="#FFFFFF" fill-rule="nonzero" points="11.626506 -1.15463195e-14 8.79326222 15.1162791 6.319162 15.1162791 8.59373801 3.01476352 5.36144578 5.49875882 5.92011358 2.46276457 9.1524058 -1.15463195e-14"></polygon>
                        </g>
                    </g>
                </g>
            </g>
        </g>
    </g>
</svg>