<?xml version="1.0" encoding="UTF-8"?>
<svg width="56px" height="58px" viewBox="0 0 56 58" version="1.1" xmlns="http://www.w3.org/2000/svg" xmlns:xlink="http://www.w3.org/1999/xlink">
    <!-- Generator: Sketch 55.2 (78181) - https://sketchapp.com -->
    <title>分组 2</title>
    <desc>Created with Sketch.</desc>
    <g id="页面1" stroke="none" stroke-width="1" fill="none" fill-rule="evenodd">
        <g id="1_未登录" transform="translate(-809.000000, -473.000000)">
            <g id="编组-7">
                <g id="编组备份" transform="translate(0.000000, 432.000000)">
                    <g id="Group-6-Copy-3" transform="translate(788.000000, 14.000000)">
                        <g id="分组-2" transform="translate(25.000000, 27.000000)">
                            <path d="M1.18627526,22.0040506 C2.56781808,22.3667574 3.99832171,22.5522534 5.45454545,22.5522534 C14.787095,22.5522534 22.3583366,14.9160091 22.3583366,5.48924062 L22.3583366,3.84757719 L24,3.84757719 C38.1646561,3.84757719 49.6416634,15.4231201 49.6416634,29.6952921 C49.6416634,43.9674642 38.1646561,55.5430071 24,55.5430071 C9.83534387,55.5430071 -1.64166343,43.9674642 -1.64166343,29.6952921 C-1.64166343,27.4762854 -1.36388369,25.292742 -0.820378853,23.1824547 L-0.409012748,21.5852276 L1.18627526,22.0040506 Z" id="合并形状-copy" stroke="#FFFFFF" stroke-width="3.28332686" fill="#FFFFFF"></path>
                            <g id="完成注册" transform="translate(11.000000, 19.000000)">
                                <g>
                                    <rect id="矩形" x="0" y="0" width="25.2" height="25.2"></rect>
                                    <path d="M12.6084495,14.7053571 C15.8702641,14.7053571 18.3294974,11.7984375 18.3294974,7.94410714 C18.3294974,4.8571875 15.7100748,2.25 12.6084495,2.25 C9.50723291,2.25 6.88740162,4.85758929 6.88740162,7.94410714 C6.88740162,11.7984375 9.34704357,14.7053571 12.6084495,14.7053571 Z M12.6084495,4.21674107 C14.5871148,4.21674107 16.3230442,5.95566964 16.3230442,7.93848214 C16.3230442,10.6746429 14.7260545,12.7382143 12.6084495,12.7382143 C10.4908445,12.7382143 8.89385485,10.6750446 8.89385485,7.93848214 C8.89385485,5.95566964 10.6297842,4.21674107 12.6084495,4.21674107 Z M20.8140668,16.7484375 C20.3339074,16.6319196 18.7483599,16.3137054 17.884073,16.1417411 L17.0524778,13.8053571 C16.5226217,14.254318 15.926049,14.6209671 15.2834481,14.8925893 L16.3471543,17.8794643 L16.9155813,17.9915625 C20.6273154,18.7220089 21.1634594,18.6324107 21.3158844,19.9129018 C21.3894408,20.5340625 21.5108087,21.3488839 21.6039801,22.95 L23.6423077,22.95 C23.5475018,21.3488839 23.4183695,20.3657143 23.3374576,19.6806696 C23.1564273,18.1627232 22.2357472,17.0903571 20.8140668,16.7484375 Z M14.4543048,20.0479018 L12.5867913,22.95 L10.7188691,20.0483036 L11.7605085,19.1000893 L10.6722835,15.8371875 L14.5008904,15.8371875 L13.4126654,19.1004911 L14.4543048,20.0479018 Z M4.40528413,16.7480357 C2.98115184,17.0899554 2.06088043,18.1623214 1.87985012,19.6810714 C1.79975545,20.3657143 1.66980594,21.3488839 1.575,22.95 L3.61332764,22.95 C3.87404396,18.9474107 3.77556021,18.9650893 4.8915732,18.6975 C5.38194873,18.5777679 7.33650388,18.1840179 8.30172639,17.994375 L8.87056201,17.8810714 L9.93426828,14.8933929 C9.29173729,14.6217008 8.69528989,14.2549086 8.16564718,13.8057589 L7.33323471,16.1417411 C6.46935648,16.3133036 4.88380892,16.6315179 4.40528413,16.7480357 Z" id="形状" fill="#1F3F59" fill-rule="nonzero"></path>
                                </g>
                            </g>
                            <path d="M14.2771084,3.72643648 C14.2771084,5.76860789 12.9148221,6.98970007 12.0685533,7.87393924 L7.36247315,12.7793613 L12.7703372,12.7793613 L12.295601,15.1162791 L3.62650602,15.1162791 L4.10124218,12.7793613 L10.4585785,6.18967416 C11.3048473,5.30543499 11.6970206,4.75804884 11.6970206,3.85275636 C11.6970206,2.88430395 11.1810031,2.33691779 10.2934529,2.33691779 C9.36462128,2.33691779 8.49771178,2.84219732 8.16746054,4.29487595 L5.58737275,4.29487595 C6.0827496,1.43162532 7.87849071,0 10.561782,0 C12.8529,0 14.2771084,1.34741206 14.2771084,3.72643648 Z" id="2" fill="#FFFFFF" fill-rule="nonzero"></path>
                        </g>
                    </g>
                </g>
            </g>
        </g>
    </g>
</svg>