<?xml version="1.0" encoding="UTF-8"?>
<svg width="56px" height="58px" viewBox="0 0 56 58" version="1.1" xmlns="http://www.w3.org/2000/svg" xmlns:xlink="http://www.w3.org/1999/xlink">
    <!-- Generator: Sketch 55.2 (78181) - https://sketchapp.com -->
    <title>分组 3</title>
    <desc>Created with Sketch.</desc>
    <g id="页面1" stroke="none" stroke-width="1" fill="none" fill-rule="evenodd">
        <g id="1_未登录" transform="translate(-1235.000000, -473.000000)">
            <g id="编组-7">
                <g id="编组备份" transform="translate(0.000000, 432.000000)">
                    <g id="Group-6-Copy-4" transform="translate(1215.000000, 14.000000)">
                        <g id="分组-3" transform="translate(24.000000, 27.000000)">
                            <path d="M1.18627526,22.1027069 C2.56781808,22.4654137 3.99832171,22.6509097 5.45454545,22.6509097 C14.787095,22.6509097 22.3583366,15.0146655 22.3583366,5.58789697 L22.3583366,3.94623355 L24,3.94623355 C38.1646561,3.94623355 49.6416634,15.5217765 49.6416634,29.7939485 C49.6416634,44.0661205 38.1646561,55.6416634 24,55.6416634 C9.83534387,55.6416634 -1.64166343,44.0661205 -1.64166343,29.7939485 C-1.64166343,27.5749418 -1.36388369,25.3913984 -0.820378853,23.2811111 L-0.409012748,21.683884 L1.18627526,22.1027069 Z" id="合并形状" stroke="#FFFFFF" stroke-width="3.28332686" fill="#FFFFFF"></path>
                            <g id="返佣" transform="translate(11.000000, 19.000000)">
                                <g>
                                    <path d="M5.84999985,3.14999992 L19.5766182,3.14999992 C20.3222026,3.14999992 20.9266182,3.75441549 20.9266182,4.49999988 L20.9266182,6.84256586 C20.9266182,7.47138001 20.4924742,8.01692313 19.8797132,8.15810123 L13.0173774,9.73916083 C12.8160549,9.78554486 12.6067724,9.78510397 12.4056472,9.7378721 L5.54136467,8.1258771 C4.93127431,7.98260464 4.49999988,7.43831798 4.49999988,6.81163046 L4.49999988,4.49999988 C4.49999988,3.75441549 5.10441545,3.14999992 5.84999985,3.14999992 Z" id="蒙版" stroke="#1F3F59" stroke-width="1.79999995"></path>
                                    <path d="M20.9249994,10.7999997 L20.9249994,21.1499994 C20.9249994,21.6470557 20.5220557,22.0499994 20.0249995,22.0499994 L5.39999986,22.0499994 C4.9029436,22.0499994 4.49999988,21.6470557 4.49999988,21.1499994 L4.49999988,10.7999997" id="路径" stroke="#1F3F59" stroke-width="1.79999995" stroke-linecap="round"></path>
                                    <g id="单箭头-左" transform="translate(9.000000, 14.400000)" fill="#1F3F59" fill-rule="nonzero" stroke="#1F3F59" stroke-width="0.899999976">
                                        <path d="M0.82798247,1.65387099 L1.9477058,0.416903685 C2.04237242,0.319842153 2.04043097,0.164415773 1.94336944,0.069749148 C1.84630791,-0.0249174771 1.69088153,-0.0229760218 1.5962149,0.0740855096 L0.0696915825,1.72799825 C0.000798074708,1.79867804 -0.0190579954,1.90374852 0.0192916203,1.99469495 C0.0576412359,2.08564139 0.14673573,2.14478006 0.245437032,2.14478006 C0.248382486,2.14478006 0.250837032,2.14330733 0.253782485,2.1431437 C0.259346124,2.14347097 0.264582485,2.14478006 0.270146123,2.14478006 L7.32287321,2.14478006 C7.41057556,2.14478006 7.49162223,2.09801478 7.53547769,2.02206478 C7.57933315,1.94611479 7.57933315,1.85253625 7.53547769,1.77658626 C7.49162223,1.70063627 7.41057556,1.65385614 7.32287321,1.65387099 L0.82798247,1.65387099 Z" id="路径" transform="translate(3.784185, 1.072390) scale(-1, 1) translate(-3.784185, -1.072390) "></path>
                                    </g>
                                    <rect id="矩形" x="0" y="0" width="25.1999993" height="25.1999993"></rect>
                                </g>
                            </g>
                            <path d="M13.6506024,3.52852371 C13.6506024,5.09443659 12.9878522,6.57683413 11.3931096,7.39110883 C12.3043911,7.91307979 12.697899,8.66471798 12.697899,10.0427213 C12.697899,12.8822434 10.5646719,15.1162791 7.8101165,15.1162791 C5.22124863,15.1162791 3.62650602,13.7173969 3.62650602,11.5877554 C3.62650602,11.3163305 3.64721697,11.1075421 3.68863885,10.8361172 L6.21537389,10.8361172 C6.19466295,11.0031479 6.17395201,11.0866632 6.17395201,11.2954516 C6.17395201,12.1306052 6.71243652,12.798728 7.83082744,12.798728 C9.13561685,12.798728 10.1297421,11.5459977 10.1297421,10.1471155 C10.1297421,9.1658101 9.59125759,8.51856611 8.47286667,8.51856611 L8.07935876,8.51856611 L8.51428856,6.26365155 L8.92850742,6.26365155 C10.171164,6.26365155 11.0824455,5.03180008 11.0824455,3.82082744 C11.0824455,2.86040087 10.52325,2.31755107 9.69481231,2.31755107 C8.78353082,2.31755107 7.87224933,2.94391623 7.58229613,4.13401002 L4.99342826,4.13401002 C5.63546749,1.31536683 7.45803047,-1.15463195e-14 10.0468983,-1.15463195e-14 C12.2422583,-1.15463195e-14 13.6506024,1.54503405 13.6506024,3.52852371 Z" id="3" fill="#FFFFFF" fill-rule="nonzero"></path>
                        </g>
                    </g>
                </g>
            </g>
        </g>
    </g>
</svg>