<?xml version="1.0" standalone="no"?><!DOCTYPE svg PUBLIC "-//W3C//DTD SVG 1.1//EN" "http://www.w3.org/Graphics/SVG/1.1/DTD/svg11.dtd"><svg t="1608866513671" class="icon" viewBox="0 0 1024 1024" version="1.1" xmlns="http://www.w3.org/2000/svg" p-id="23134" xmlns:xlink="http://www.w3.org/1999/xlink" width="200" height="200"><defs><style type="text/css"></style></defs><path d="M79.2 515.3c0 249 201.8 450.8 450.8 450.8s450.8-201.8 450.8-450.8S779 64.4 530 64.4 79.2 266.3 79.2 515.3z" fill="#E9EAEB" p-id="23135"></path><path d="M717.9 385.7l-3.5-3.7c-18.1-19-20.1-46.8-4.3-61.8l66.8-63.1c24.2-23 58.8-26.1 76.8-7.2l3.5 3.7c18.1 19 13.1 53.4-11.1 76.4l-66.8 63.1c-15.7 15.1-43.3 11.7-61.4-7.4z" fill="#FFFFFF" p-id="23136"></path><path d="M754.8 418.7c-18.5-0.3-36.1-8.2-48.7-21.7l-3.5-3.7c-24.3-25.6-25.9-63.4-3.8-84.5l66.8-63.1c13.6-13.3 31.3-21.6 50.3-23.6 18.2-2.1 36.4 4.2 49.3 17.2l3.5 3.7c12.3 13.6 17.6 32.1 14.5 50.1-3 18.8-12.2 36.1-26.2 49l-66.8 63.1c-9.6 8.8-22.3 13.7-35.4 13.5z m-25.2-44.1c11.8 12.5 29.5 15.6 38.7 7.2l66.8-63.1c8.7-8 14.5-18.6 16.5-30.3 1.7-8.3-0.6-16.9-6.1-23.3l-3.5-3.7c-6.1-5.8-14.6-8.5-23-7.2-11.6 1.4-22.5 6.5-30.9 14.6L721.2 332c-9.1 8.6-6.9 26.5 5 39l3.4 3.6z" fill="#2A5082" p-id="23137"></path><path d="M379.1 469.4l-86.7-32.2-115.9 366.3c6.7 5.3 13.2 10.7 19.4 16.2 22.3 19.7 42.5 41.7 60.2 65.6l112 16.4c24.7-26.9 43.4-44.2 64.6-64.4 164.9 12.1 241-109.6 257.4-128.8 16.4-19.2-311-239.1-311-239.1z" fill="#FFFFFF" p-id="23138"></path><path d="M374.5 918.9l-127.2-18.3-4-5.5c-17-23-36.4-44.2-57.9-63.1-5.7-5.1-12.1-10.4-18.8-15.6l-8.7-7.2 124.2-392.7 104.4 38.6 1.6 1.1c0.8 0.5 78 52.4 154.7 107.3C703.3 678.2 705.4 693.7 706.9 704c0.8 5.4-0.7 10.8-4.3 15-1.4 1.6-3.1 3.9-5.4 6.8-26 33.9-104.3 136.1-258.4 128-19.3 18.2-36.2 34.5-58.7 58.8l-5.6 6.3z m-109.3-48.3l97.1 14c21.7-23 38.2-38.8 57.5-57l7.2-6.9 7.2 0.5c141.3 10.4 213.7-84 237.6-115.1l0.4-0.5c-25.9-30-168-132.9-300.5-221.9l-68.8-25.5-107.6 339.9c4 3.3 7.8 6.6 11.4 9.8 21.6 18.9 41.1 39.9 58.5 62.7z" fill="#2A5082" p-id="23139"></path><path d="M401.2 16.1h322c32.2 0 48.3 16.1 48.3 48.3v611.9c0 32.2-16.1 48.3-48.3 48.3h-322c-32.2 0-48.3-16.1-48.3-48.3V64.4c0-32.2 16.1-48.3 48.3-48.3z" fill="#E9EAEB" p-id="23140"></path><path d="M722.9 740.7H401.2c-35.6 0-64.4-28.9-64.4-64.5V64.4c0-35.6 28.8-64.4 64.4-64.4h321.7c35.5 0 64.3 28.8 64.4 64.4v611.7c0 35.6-28.7 64.5-64.4 64.6zM401.2 32.2c-17.8 0-32.2 14.4-32.2 32.2V676c0 17.8 14.4 32.2 32.2 32.2h321.7c17.8 0.1 32.3-14.2 32.4-32V64.4c0-17.8-14.4-32.2-32.2-32.2H401.2z" fill="#2A5082" p-id="23141"></path><path d="M352.8 96.7h418.6v499.1H352.8V96.7z" fill="#FFFFFF" p-id="23142"></path><path d="M787.6 611.9H336.7V80.5h450.8v531.4zM369 579.6h386.4V112.7H369v466.9z" fill="#2A5082" p-id="23143"></path><path d="M762.4 710.2l-3.5-3c-18.2-15.6-24.9-37.9-15-49.3l42.1-48.5c15.9-17.5 42.8-19.1 60.7-3.6l3.5 3c17.9 15.4 20.3 42.3 5.3 60.5l-42.1 48.5c-9.9 11.5-32.6 8-51-7.6z" fill="#FFFFFF" p-id="23144"></path><path d="M796.3 740.7c-2.6 0-5.2-0.2-7.7-0.6-13.6-2.4-26.4-8.5-36.7-17.7l-3.5-3c-10.6-8.9-18.5-20.6-22.9-33.7-4.7-13-2.4-27.5 6.2-38.3l42.2-48.5c21.6-24.4 58.8-26.8 83.3-5.3l3.3 2.9c11.9 10.2 19.4 24.7 20.7 40.3 1.6 15.6-3.3 31.2-13.5 43.1l-42.2 48.5c-7.4 8.2-18.1 12.7-29.2 12.3zM818 611c-7.5-0.1-14.7 3.2-19.6 8.8l-42.2 48.5c-0.6 0.7-1.1 3.4 0 7.8 2.6 7.3 7.1 13.8 13.1 18.8l3.5 3c5.7 5.2 12.8 8.8 20.4 10.3 4.6 0.7 7.2 0 7.8-0.9l42.2-48.5c4.5-5.3 6.7-12.1 6-19-0.6-7.3-4.1-14-9.6-18.8l-3.5-3c-5.1-4.5-11.6-7-18.3-7h0.2z" fill="#2A5082" p-id="23145"></path><path d="M361.7 466.1c15.8-46.8 25.5-95.5 29-144.8 3.2-33.9-11.2-62.9-26.1-83.9-15-21-52.7-16.5-60.2 7.2-33 106.3-39.2 135-59.3 188.2-23.2 59.4-10.1 142.9-21.7 167.3-2.2 4.9-79.1 103.8-100.4 133.8 22.6 11.4 70 32.4 88.7 48.9 23.2 20.4 44.1 43.3 62.5 68.1l17.5 1.4 102-105.3c44.2-125.4 7.7-230.6-32-280.9z" fill="#FFFFFF" p-id="23146"></path><path d="M290.6 868.3l-24.9-2-4.3-6c-17.6-24-37.8-46-60.2-65.6-13.2-11.7-46.5-27.7-68.5-38.4-6.3-3-12-5.8-16.7-8.2l-16.7-8.4 10.8-15.3c11.1-15.6 36.7-49.3 59.3-79 17-22.4 36.2-47.6 39.8-52.9 3-7.7 3.5-28.1 4.1-47.9 0.9-35.8 2-80.4 16.4-117.7 13-33.9 20-57.1 32.6-99.1 6.7-22.4 15.1-50.7 26.8-87.6 5.8-17.1 20.8-29.4 38.7-31.7 19-3.5 38.4 4.1 50 19.7 22.3 31.2 32.1 63.1 29 94.8-3.4 47.7-12.5 94.8-27.2 140.3 41.7 57.9 72.9 165.2 29.5 289.1l-30.4-10.6c40.8-116.7 9.6-216-29.7-265.5l-5.4-6.8 2.9-8.3c15.5-45.7 25-93.1 28.3-141.2 2.2-23.7-5.6-48.3-23.2-73.1-4.5-5.5-11.7-8-18.7-6.6-5.8 0.5-10.8 4.2-13.1 9.5-11.7 37.2-20.1 65.2-26.8 87.3-12.5 41.4-19.9 66.4-33.4 101.4-12.4 32.1-13.4 73.6-14.5 106.9-0.7 26.9-1.2 48.2-7.2 61.3-1.5 3.3-5.1 8.3-43.4 57.9-16.6 21.7-34.8 45.6-47.5 62.8 26.3 12.7 58.7 28.4 75 42.9 22.4 19.7 42.8 41.5 61 65.2l10.3 0.8-2.7 32z" fill="#2A5082" p-id="23147"></path><path d="M66 753.3l87.4-87.4 247.7 247.9-87.4 87.4L66 753.3z" fill="#A3D4FF" p-id="23148"></path><path d="M313.7 1024L43.2 753.3l110.2-110.1 270.5 270.7L313.7 1024z m-225-270.7l225 225.1 64.7-64.6-225-225.1-64.7 64.6z" fill="#2A5082" p-id="23149"></path><path d="M762.7 597.2l-3.6-3.1c-18.5-15.9-25.3-38.5-15.3-50.2l42.9-49.3c16.1-18 43.7-19.7 61.8-3.7l3.6 3.1c18.4 15.6 20.9 43.1 5.4 61.6L814.6 605c-10.1 11.6-33.8 8.2-51.9-7.8z" fill="#FFFFFF" p-id="23150"></path><path d="M797.3 628c-16.9-0.6-33-7.2-45.5-18.6l-3.6-3.1c-10.8-9-18.8-20.8-23.2-34.2-4.8-13.1-2.4-27.7 6.3-38.7l42.9-49.4c10.3-12 25.1-19.2 40.9-20.1 15.8-1.1 31.4 4.1 43.4 14.5l3.6 3.1c12.1 10.3 19.6 25 20.9 40.8 1.5 15.8-3.5 31.5-13.9 43.4l-42.9 49.4c-7.2 8.4-17.8 13.1-28.9 12.9zM819 496.1h-1.7c-7.1 0.3-13.8 3.6-18.5 9l-42.9 49.4c-1.1 2.6-1.1 5.6 0 8.3 2.7 7.5 7.5 14.2 13.8 19.2l3.6 3.1c13.3 11.4 26.8 12.2 29 9.4l42.9-49.4c4.6-5.4 6.9-12.5 6.2-19.6-0.7-7.5-4.2-14.4-9.9-19.3l-3.6-3.1c-5.4-4.4-12-6.9-18.9-7z" fill="#2A5082" p-id="23151"></path><path d="M762.6 487.8l-3.6-3.1c-18.5-15.9-25.3-38.5-15.3-50.2l42.9-49.3c16.1-18 43.7-19.7 61.8-3.7l3.6 3.1c18.4 15.6 20.8 43.1 5.4 61.6L814.6 495c-10.1 12-33.8 8.5-52-7.2z" fill="#FFFFFF" p-id="23152"></path><path d="M797.3 518.4c-16.9-0.6-33-7.2-45.4-18.6l-3.6-3.1c-10.8-9-18.8-20.8-23.2-34.2-4.8-13.1-2.4-27.7 6.3-38.7l42.9-49.4c21.9-24.7 59.6-27.1 84.4-5.3l3.6 3.1c12.1 10.3 19.6 25 20.9 40.8 1.5 15.8-3.5 31.5-13.9 43.4l-42.9 49.4c-7.4 8.3-18.1 12.9-29.1 12.6z m21.7-132c-7.7-0.1-15.1 3.2-20.2 9.1l-42.9 49.4c-1.1 2.6-1.1 5.6 0 8.3 2.6 7.5 7.3 14.1 13.5 19.2l3.6 3.1c13.3 11.4 26.8 12.2 29 9.4l42.9-49.4c4.6-5.4 6.9-12.5 6.2-19.6-0.7-7.5-4.2-14.4-9.9-19.3l-3.6-3.1c-5.3-4.4-11.8-6.9-18.6-7.1zM513.8 644.1h96.6v32.2h-96.6v-32.2z m-10.7-347.8l-29.5-12.9c21.4-48.9 78.4-71.2 127.3-49.8 22.3 9.7 40.1 27.5 49.8 49.8l-29.2 12.9c-14.3-32.6-52.2-47.5-84.9-33.2-14.9 6.5-26.7 18.4-33.2 33.2h-0.3z" fill="#2A5082" p-id="23153"></path><path d="M455 250.5l-26.8-17.9c49.4-74 149.4-93.9 223.3-44.6 17.7 11.8 32.8 26.9 44.6 44.6l-26.8 17.9c-39.5-59.2-119.5-75.1-178.7-35.6-14 9.4-26.1 21.5-35.6 35.6z m127.4 248.7h-36.2c-26.7 0-48.3-21.6-48.3-48.3h32.2c0 8.9 7.2 16 16.1 16.1h36.2c6.6 0.1 12-5.3 12-11.9 0-5.2-3.3-9.9-8.3-11.5l-57.9-19.4c-23.2-7.7-35.7-32.7-28-55.8 6-18 22.7-30.1 41.6-30.3H578c26.7-0.1 48.4 21.5 48.5 48.2v0.1h-32.2c0-8.9-7.3-16.1-16.2-16.1H541.8c-6.6-0.1-12 5.3-12 11.9 0 5.2 3.3 9.9 8.3 11.5l57.9 19.4c23.2 7.7 35.7 32.7 28 55.8-5.9 18-22.6 30.2-41.6 30.3z" fill="#2A5082" p-id="23154"></path><path d="M546.1 305.9h32.2v48.3h-32.2v-48.3z m0 177.1h32.2v48.3h-32.2V483z" fill="#2A5082" p-id="23155"></path></svg>