<?xml version="1.0" standalone="no"?><!DOCTYPE svg PUBLIC "-//W3C//DTD SVG 1.1//EN" "http://www.w3.org/Graphics/SVG/1.1/DTD/svg11.dtd"><svg t="1608866678558" class="icon" viewBox="0 0 1024 1024" version="1.1" xmlns="http://www.w3.org/2000/svg" p-id="32043" xmlns:xlink="http://www.w3.org/1999/xlink" width="200" height="200"><defs><style type="text/css"></style></defs><path d="M895 222.6v456.4c0 22.4-18.2 40.5-40.5 40.6H177.9c-22.4-0.1-40.5-18.2-40.6-40.6V222.1" fill="#FFFFFF" p-id="32044"></path><path d="M148.1 220.8h736.2v465.3H148.1zM148.1 686.1h736.2v22.8H148.1z" fill="#D0D9FB" p-id="32045"></path><path d="M854.4 730.3H177.9c-28.3 0-51.2-23-51.3-51.3V222.1c0-5.9 4.8-10.7 10.7-10.7s10.7 4.8 10.7 10.7v456.9c0 16.5 13.4 29.8 29.8 29.8h676.5c16.5 0 29.8-13.4 29.8-29.8V222.6c0-5.9 4.8-10.7 10.7-10.7 5.9 0 10.7 4.8 10.7 10.7v456.4c0.2 28.3-22.8 51.3-51.1 51.3z" fill="#3F63F6" p-id="32046"></path><path d="M934 140.6H616.5c-0.4-7.1-12-21.4-26.2-21.4H438.1C423.9 119.2 412.2 133.5 411.9 140.6H91c-10.2 0-18.6 7-18.6 15.6v40.3c0 8.6 8.4 15.5 18.6 15.5h846.2c7.9 0 14.3-5.3 14.3-11.9V155.2c0-8-7.9-14.6-17.5-14.6z" fill="#FFFFFF" p-id="32047"></path><path d="M937.2 220.6H91c-15 0-27.1-10.8-27.1-24.1V156.1c0-13.3 12.2-24.1 27.1-24.1h314.5c5-10.4 17.6-21.4 32.5-21.4h152.2c14.9 0 27.5 11 32.5 21.4h311.3c14.4 0 26.1 10.4 26.1 23.2v44.9c0 11.3-10.3 20.5-22.9 20.5zM91 149.2c-5.9 0-10 3.7-10 7v40.3c0 3.3 4.1 7 10 7h846.2c3.5 0 5.7-2 5.7-3.3v-45c0-2.9-3.7-6-8.9-6H616.5c-4.6 0-8.3-3.6-8.6-8.1-0.4-3.2-8.4-13.3-17.7-13.3H438.1c-9.3 0-17.3 10.1-17.7 13.4-0.3 4.5-4 8.1-8.6 8H91z" fill="#3F63F6" p-id="32048"></path><path d="M443.7 147.5h143.3c3.8 0 6.8 3 6.8 6.8v20.7c0 1.1-0.9 2.1-2.1 2.1H439c-1.1 0-2.1-0.9-2.1-2V154.3c0-3.7 3.1-6.8 6.8-6.8z" fill="#D0D9FB" p-id="32049"></path><path d="M589.4 183.6h-148c-6 0-10.9-4.9-10.9-10.9V162.1c0-11.6 9.4-21 21-21h127.8c11.6 0 21 9.4 21 21v10.6c0 6-4.9 10.9-10.9 10.9z m-146-12.9h144.1v-8.6c0-4.5-3.7-8.2-8.2-8.2H451.5c-4.5 0-8.2 3.7-8.2 8.2v8.6zM516.2 836.2c-3.6 0-6.4-2.9-6.4-6.4L509.9 719.6c0-3.6 2.9-6.4 6.4-6.4 3.6 0 6.4 2.9 6.4 6.4l-0.1 110.2c0 3.5-2.9 6.4-6.4 6.4z" fill="#3F63F6" p-id="32050"></path><path d="M516.2 871.8m-24.6 0a24.6 24.6 0 1 0 49.2 0 24.6 24.6 0 1 0-49.2 0Z" fill="#D0D9FB" p-id="32051"></path><path d="M516.2 847.2c13.6 0 24.6 11 24.6 24.6 0 13.6-11 24.6-24.6 24.6s-24.6-11-24.6-24.6c0-13.6 11-24.6 24.6-24.6m0-17.2c-23 0-41.7 18.7-41.7 41.7s18.7 41.7 41.7 41.7c23 0 41.7-18.7 41.7-41.7 0-23-18.7-41.6-41.7-41.7z" fill="#3F63F6" p-id="32052"></path><path d="M516.2 852.9c12.5 0 22.9 9.3 24.4 21.7 1.6-13.5-8-25.7-21.5-27.3-13.5-1.6-25.7 8-27.3 21.5-0.2 1.9-0.2 3.9 0 5.9 1.4-12.5 11.9-21.8 24.4-21.8z" fill="#FFFFFF" p-id="32053"></path><path d="M902.1 329.3m-41.6 0a41.6 41.6 0 1 0 83.2 0 41.6 41.6 0 1 0-83.2 0Z" fill="#FFFFFF" p-id="32054"></path><path d="M902.1 329.3m-41.6 0a41.6 41.6 0 1 0 83.2 0 41.6 41.6 0 1 0-83.2 0Z" fill="#FFFFFF" p-id="32055"></path><path d="M934.2 355.8c7.2-4.5 9-20.2 2.9-36-8.3-13-23.6-20.9-40-18.9-22.8 2.7-39.1 23.4-36.4 46.2 1.7 14.8 11 26.8 23.5 32.7v-12.9H911.9l22.3-11.1z" fill="#93AEF9" p-id="32056"></path><path d="M902 377.4c-26.5 0-48-21.6-48-48.1s21.6-48 48.1-48c24.3 0 44.8 18.2 47.7 42.4 3.1 26.4-15.7 50.3-42.1 53.4-1.9 0.2-3.8 0.3-5.7 0.3z m0.1-83.3c-1.4 0-2.8 0.1-4.2 0.3-19.3 2.3-33.1 19.8-30.8 39.1 2.3 19.3 19.8 33.1 39.1 30.8s33.1-19.8 30.8-39.1c-2.1-17.7-17.1-31-34.9-31.1z" fill="#3F63F6" p-id="32057"></path><path d="M664.8 545.6m-41.6 0a41.6 41.6 0 1 0 83.2 0 41.6 41.6 0 1 0-83.2 0Z" fill="#FFFFFF" p-id="32058"></path><path d="M664.8 557.8m-41.6 0a41.6 41.6 0 1 0 83.2 0 41.6 41.6 0 1 0-83.2 0Z" fill="#93AEF9" p-id="32059"></path><path d="M664.7 593.7c-26.5 0-48-21.5-48-48.1 0-26.5 21.5-48 48.1-48 24.3 0 44.8 18.2 47.7 42.4 3.1 26.4-15.7 50.3-42.1 53.4-1.9 0.2-3.8 0.3-5.7 0.3z m0.1-83.3c-1.4 0-2.8 0.1-4.2 0.3-19.3 2.3-33.1 19.8-30.8 39.1 2.3 19.3 19.8 33.1 39.1 30.8 19.3-2.3 33.1-19.8 30.8-39.1-2.1-17.7-17.1-31-34.9-31.1z" fill="#3F63F6" p-id="32060"></path><path d="M521.9 392.1m-41.6 0a41.6 41.6 0 1 0 83.2 0 41.6 41.6 0 1 0-83.2 0Z" fill="#FFFFFF" p-id="32061"></path><path d="M521.9 404.2m-41.6 0a41.6 41.6 0 1 0 83.2 0 41.6 41.6 0 1 0-83.2 0Z" fill="#93AEF9" p-id="32062"></path><path d="M521.9 439c-26.5 0-48-21.5-48-48.1 0-26.5 21.5-48 48.1-48 24.3 0 44.8 18.2 47.7 42.4 3.1 26.4-15.7 50.3-42.1 53.4-1.9 0.2-3.8 0.3-5.7 0.3z m0.1-83.2c-1.4 0-2.8 0.1-4.2 0.3-19.3 2.3-33.1 19.8-30.8 39.1s19.8 33.1 39.1 30.8c19.3-2.3 33.1-19.8 30.8-39.1-2.1-17.7-17.1-31-34.9-31.1z" fill="#3F63F6" p-id="32063"></path><path d="M283.1 607.6m-41.6 0a41.6 41.6 0 1 0 83.2 0 41.6 41.6 0 1 0-83.2 0Z" fill="#FFFFFF" p-id="32064"></path><path d="M283.1 620m-41.6 0a41.6 41.6 0 1 0 83.2 0 41.6 41.6 0 1 0-83.2 0Z" fill="#93AEF9" p-id="32065"></path><path d="M283.1 655.7c-26.6 0-48.1-21.5-48.1-48.1s21.5-48.1 48.1-48.1 48.1 21.5 48.1 48.1c0 24.4-18.2 44.9-42.4 47.8-1.9 0.2-3.8 0.3-5.7 0.3z m0.1-83.3c-19.4 0-35.2 15.7-35.2 35.2s15.7 35.2 35.2 35.2c19.4 0 35.2-15.7 35.2-35.2 0-1.4-0.1-2.8-0.3-4.2-2.1-17.7-17.1-31-34.9-31zM696.6 525.2c-3.6 0-6.4-2.9-6.4-6.4 0-1.8 0.8-3.5 2.1-4.7l174.9-161.2c2.6-2.4 6.7-2.2 9.1 0.4 2.4 2.6 2.2 6.7-0.4 9.1L700.9 523.5c-1.2 1.1-2.7 1.7-4.3 1.7zM636 522c-1.8 0-3.5-0.7-4.7-2.1l-86.3-93.6c-2.4-2.6-2.2-6.7 0.4-9.1s6.7-2.2 9.1 0.4l86.3 93.6c2.4 2.6 2.2 6.7-0.4 9.1-1.2 1.1-2.8 1.7-4.4 1.7z" fill="#3F63F6" p-id="32066"></path><path d="M313.7 585.9c-3.6 0-6.4-2.9-6.4-6.4 0-1.8 0.8-3.5 2.1-4.8l176-162.2c2.6-2.4 6.7-2.2 9.1 0.4s2.2 6.7-0.4 9.1l-176 162.2c-1.2 1.1-2.8 1.7-4.4 1.7z" fill="#3F63F6" p-id="32067"></path><path d="M86 193.6h852c2.7 0 4.9 2.2 4.9 4.9s-2.2 4.9-4.9 4.9h-852c-2.7 0-4.9-2.2-4.9-4.9s2.2-4.9 4.9-4.9z" fill="#D0D9FB" p-id="32068"></path><path d="M211.9 282.1h152.6v152.6H211.9z" fill="#FFFFFF" p-id="32069"></path><path d="M364.5 434.7h-13.9v-12.9h1.1v-1h12.8zM336.7 434.7H322.9v-12.9h13.9l-0.1 12.9z m-27.7 0h-13.9v-12.9h13.9v12.9z m-27.7 0h-13.9v-12.9h13.9v12.9z m-27.7 0h-13.9v-12.9h13.9v12.9zM225.8 434.7H211.9v-13.9h12.9v1h1zM224.8 406.9H211.9v-13.9h12.9v13.9z m0-27.7H211.9v-13.9h12.9v13.9z m0-27.7H211.9V337.6h12.9v13.9z m0-27.7H211.9v-13.9h12.9v13.9zM224.8 296H211.9v-13.9h13.9v12.9h-1zM336.7 295H322.9v-12.9h13.9l-0.1 12.9z m-27.7 0h-13.9v-12.9h13.9v12.9z m-27.7 0h-13.9v-12.9h13.9v12.9z m-27.7 0h-13.9v-12.9h13.9v12.9zM364.5 296h-12.8v-1h-1.1v-12.9h13.9zM364.5 406.9h-12.9v-13.9h12.9v13.9z m0-27.7h-12.9v-13.9h12.9v13.9z m0-27.7h-12.9V337.6h12.9v13.9z m0-27.7h-12.9v-13.9h12.9v13.9z" fill="#3F63F6" p-id="32070"></path></svg>