<svg xmlns="http://www.w3.org/2000/svg" viewBox="0 0 96 96" fill="none"
><g clip-path="url(#note-b96_svg__clip0)"><path d="M59.06 35.64h-2.4v2.5h2.4v-2.5zM53.77 35.64h-2.4v2.5h2.4v-2.5zM48.48 35.64h-2.4v2.5h2.4v-2.5zM43.2 35.64h-2.4v2.5h2.4v-2.5zM37.91 35.64h-2.4v2.5h2.4v-2.5zM32.62 35.64h-2.4v2.5h2.4v-2.5zM27.33 35.64h-2.4v2.5h2.4v-2.5zM22.04 35.64h-2.4v2.5h2.4v-2.5zM16.75 35.64h-2.4v2.5h2.4v-2.5z" fill="currentColor"></path><path d="M82.01 19.47L38.66 62.83l-3.13 8.83 8.83-3.13 43.35-43.36-5.7-5.7z" fill="url(#note-b96_svg__paint0_linear)"></path><path d="M91.61 29.06L76.36 44.3l-1.77-1.76 15.24-15.25 1.78 1.77zM91.61 21.29l-.89.88-.89.88-5.69-5.7.89-.88.88-.88 5.7 5.7zM20.84 57.94h18.47l-2.5 2.5H20.84v-2.5zM50.49 46.76l-2.5 2.5H20.84v-2.5h29.65z" fill="currentColor"></path><path d="M62 55.18V84.5H11.46V38.14H9V87h55.45V52.68L62 55.18zM53.77 20.5v-5h-2.4v5h-8.18v-5h-2.4v5h-8.18v-5h-2.4v5H22v-5h-2.4v5H9v15.14h2.5V23h8.18v5H22v-5h8.17v5h2.4v-5h8.18v5h2.4v-5h8.18v5h2.4v-5H62v12.29l2.5-2.5V20.5H53.77z" fill="currentColor"></path><path d="M32.74 69.11h-11.9v2.5h11.9v-2.5z" fill="currentColor"></path></g><defs><linearGradient id="note-b96_svg__paint0_linear" x1="35.547" y1="71.722" x2="84.882" y2="22.387" gradientUnits="userSpaceOnUse"><stop stop-color="#F0B90B"></stop><stop offset="0.28" stop-color="#F1BC0F"></stop><stop offset="0.569" stop-color="#F4C41C"></stop><stop offset="0.862" stop-color="#F8D230"></stop><stop offset="0.993" stop-color="#FBDA3C"></stop></linearGradient><clipPath id="note-b96_svg__clip0"><path fill="#fff" d="M0 0h96v96H0z"></path></clipPath></defs></svg>
