<svg xmlns="http://www.w3.org/2000/svg"><defs><linearGradient id="a" x1="0%" y1="0%" x2="0%" y2="100%"><stop offset="0%" stop-color="rgba(46,140,280,.65)"/><stop offset="80%" stop-color="rgba(46,140,280,.05)"/><stop offset="100%" stop-color="transparent"/></linearGradient></defs><path d="M0 6l4 2 5-2h4l4-3 5-2 4 5h4l5-3 4-2 4 9 5 5h4l5 2 4 7h4l5 5h4l4-12h5l4 3h4l5 4 4-2" stroke="rgba(46,140,280, 1)" fill="none"/><path d="M0 28V6l4 2 5-2h4l4-3 5-2 4 5h4l5-3 4-2 4 9 5 5h4l5 2 4 7h4l5 5h4l4-12h5l4 3h4l5 4 4-2v6" fill="url(#a)"/></svg>
