<svg xmlns="http://www.w3.org/2000/svg"><defs><linearGradient id="a" x1="0%" y1="0%" x2="0%" y2="100%"><stop offset="0%" stop-color="rgba(46,140,280,.65)"/><stop offset="80%" stop-color="rgba(46,140,280,.05)"/><stop offset="100%" stop-color="transparent"/></linearGradient></defs><path d="M0 28h4l5-6 4 5 4 1 5-2 4 3 4-4 5-1h4l4-9 5 1 4-3 5-4 4 2 4-3 5-2 4 6h4l5 5 4-3 4-1 5-3 4-9" stroke="rgba(46,140,280, 1)" fill="none"/><path d="M0 28h4l5-6 4 5 4 1 5-2 4 3 4-4 5-1h4l4-9 5 1 4-3 5-4 4 2 4-3 5-2 4 6h4l5 5 4-3 4-1 5-3 4-9v27" fill="url(#a)"/></svg>
